<mxfile host="Electron" modified="2024-07-26T11:16:14.597Z" agent="Mozilla/5.0 (X11; Linux x86_64) AppleWebKit/537.36 (KHTML, like Gecko) draw.io/24.6.4 Chrome/124.0.6367.207 Electron/30.0.6 Safari/537.36" etag="dPtXu3JT37dJSS0M-fT6" version="24.6.4" type="device">
  <diagram name="PÃ¡gina-1" id="lnbGgYRgg3Z7q_tyEh6f">
    <mxGraphModel dx="798" dy="479" grid="1" gridSize="10" guides="1" tooltips="1" connect="1" arrows="1" fold="1" page="1" pageScale="1" pageWidth="827" pageHeight="1169" math="0" shadow="0">
      <root>
        <mxCell id="0" />
        <mxCell id="1" parent="0" />
        <mxCell id="D-Jm0xM2PU85Y9nbIEZR-3" value="" style="shape=cylinder3;whiteSpace=wrap;html=1;boundedLbl=1;backgroundOutline=1;size=15;" vertex="1" parent="1">
          <mxGeometry x="200" y="10" width="150" height="120" as="geometry" />
        </mxCell>
        <mxCell id="D-Jm0xM2PU85Y9nbIEZR-14" style="edgeStyle=orthogonalEdgeStyle;rounded=0;orthogonalLoop=1;jettySize=auto;html=1;exitX=1;exitY=0.5;exitDx=0;exitDy=0;entryX=0;entryY=0.5;entryDx=0;entryDy=0;curved=1;" edge="1" parent="1" source="D-Jm0xM2PU85Y9nbIEZR-2" target="D-Jm0xM2PU85Y9nbIEZR-12">
          <mxGeometry relative="1" as="geometry" />
        </mxCell>
        <mxCell id="D-Jm0xM2PU85Y9nbIEZR-15" style="rounded=0;orthogonalLoop=1;jettySize=auto;html=1;exitX=1;exitY=0.5;exitDx=0;exitDy=0;entryX=0;entryY=0.5;entryDx=0;entryDy=0;edgeStyle=orthogonalEdgeStyle;curved=1;" edge="1" parent="1" source="D-Jm0xM2PU85Y9nbIEZR-2" target="D-Jm0xM2PU85Y9nbIEZR-13">
          <mxGeometry relative="1" as="geometry" />
        </mxCell>
        <mxCell id="D-Jm0xM2PU85Y9nbIEZR-2" value="Sender&lt;div&gt;Microservice&lt;/div&gt;" style="shape=hexagon;perimeter=hexagonPerimeter2;whiteSpace=wrap;html=1;fixedSize=1;" vertex="1" parent="1">
          <mxGeometry x="60" y="40" width="90" height="80" as="geometry" />
        </mxCell>
        <mxCell id="D-Jm0xM2PU85Y9nbIEZR-5" value="&lt;div&gt;Message&lt;/div&gt;Relay&lt;div&gt;Microservice&lt;/div&gt;" style="shape=hexagon;perimeter=hexagonPerimeter2;whiteSpace=wrap;html=1;fixedSize=1;" vertex="1" parent="1">
          <mxGeometry x="400" y="40" width="90" height="80" as="geometry" />
        </mxCell>
        <mxCell id="D-Jm0xM2PU85Y9nbIEZR-8" value="Queue" style="strokeWidth=1;html=1;shape=mxgraph.flowchart.direct_data;whiteSpace=wrap;" vertex="1" parent="1">
          <mxGeometry x="540" y="55" width="90" height="50" as="geometry" />
        </mxCell>
        <mxCell id="D-Jm0xM2PU85Y9nbIEZR-9" style="edgeStyle=orthogonalEdgeStyle;rounded=0;orthogonalLoop=1;jettySize=auto;html=1;exitX=1;exitY=0.5;exitDx=0;exitDy=0;entryX=0;entryY=0.5;entryDx=0;entryDy=0;entryPerimeter=0;" edge="1" parent="1" source="D-Jm0xM2PU85Y9nbIEZR-5" target="D-Jm0xM2PU85Y9nbIEZR-8">
          <mxGeometry relative="1" as="geometry" />
        </mxCell>
        <mxCell id="D-Jm0xM2PU85Y9nbIEZR-12" value="Organizations&lt;div&gt;Table&lt;/div&gt;" style="rounded=1;whiteSpace=wrap;html=1;" vertex="1" parent="1">
          <mxGeometry x="215" y="45" width="120" height="30" as="geometry" />
        </mxCell>
        <mxCell id="D-Jm0xM2PU85Y9nbIEZR-16" style="edgeStyle=orthogonalEdgeStyle;rounded=0;orthogonalLoop=1;jettySize=auto;html=1;exitX=1;exitY=0.5;exitDx=0;exitDy=0;entryX=0;entryY=0.5;entryDx=0;entryDy=0;curved=1;" edge="1" parent="1" source="D-Jm0xM2PU85Y9nbIEZR-13" target="D-Jm0xM2PU85Y9nbIEZR-5">
          <mxGeometry relative="1" as="geometry" />
        </mxCell>
        <mxCell id="D-Jm0xM2PU85Y9nbIEZR-13" value="Message Outbox Table" style="rounded=1;whiteSpace=wrap;html=1;" vertex="1" parent="1">
          <mxGeometry x="215" y="90" width="120" height="30" as="geometry" />
        </mxCell>
      </root>
    </mxGraphModel>
  </diagram>
</mxfile>
